<svg width="516" height="92" viewBox="0 0 516 92" fill="none" xmlns="http://www.w3.org/2000/svg">
<g filter="url(#filter0_d_2820_3542)">
<rect x="4" y="2" width="248" height="90" rx="10" fill="white"/>
<path d="M59.5897 48.0817C59.5708 44.9669 61.0296 42.6194 63.9755 40.8884C62.3279 38.6049 59.8352 37.3489 56.5494 37.1069C53.4382 36.8694 50.0343 38.8606 48.788 38.8606C47.4708 38.8606 44.4588 37.1891 42.0888 37.1891C37.1979 37.2621 32 40.9615 32 48.4881C32 50.7123 32.4202 53.0096 33.2605 55.3754C34.3841 58.4902 38.4348 66.1218 42.6601 65.9985C44.8695 65.9483 46.4322 64.4822 49.3073 64.4822C52.0974 64.4822 53.5421 65.9985 56.0064 65.9985C60.2695 65.9391 63.933 59.0017 65 55.8778C59.2828 53.2699 59.5897 48.2415 59.5897 48.0817ZM54.6279 34.1519C57.0215 31.4025 56.8043 28.8997 56.7335 28C54.6185 28.1187 52.173 29.393 50.7803 30.9595C49.2459 32.6402 48.3442 34.7182 48.5378 37.0612C50.8227 37.2302 52.9094 36.093 54.6279 34.1519Z" fill="#252B42"/>
<path d="M91.162 37V27.2H95.614C96.678 27.2 97.616 27.4053 98.428 27.816C99.24 28.2173 99.8747 28.782 100.332 29.51C100.789 30.238 101.018 31.1013 101.018 32.1C101.018 33.0893 100.789 33.9527 100.332 34.69C99.8747 35.418 99.24 35.9873 98.428 36.398C97.616 36.7993 96.678 37 95.614 37H91.162ZM93.43 35.138H95.502C96.1553 35.138 96.72 35.0167 97.196 34.774C97.6813 34.522 98.0547 34.1673 98.316 33.71C98.5867 33.2527 98.722 32.716 98.722 32.1C98.722 31.4747 98.5867 30.938 98.316 30.49C98.0547 30.0327 97.6813 29.6827 97.196 29.44C96.72 29.188 96.1553 29.062 95.502 29.062H93.43V35.138ZM106.358 37.112C105.556 37.112 104.842 36.944 104.216 36.608C103.6 36.272 103.11 35.8147 102.746 35.236C102.392 34.648 102.214 33.9807 102.214 33.234C102.214 32.478 102.392 31.8107 102.746 31.232C103.11 30.644 103.6 30.1867 104.216 29.86C104.842 29.524 105.556 29.356 106.358 29.356C107.152 29.356 107.861 29.524 108.486 29.86C109.112 30.1867 109.602 30.6393 109.956 31.218C110.311 31.7967 110.488 32.4687 110.488 33.234C110.488 33.9807 110.311 34.648 109.956 35.236C109.602 35.8147 109.112 36.272 108.486 36.608C107.861 36.944 107.152 37.112 106.358 37.112ZM106.358 35.32C106.722 35.32 107.049 35.236 107.338 35.068C107.628 34.9 107.856 34.662 108.024 34.354C108.192 34.0367 108.276 33.6633 108.276 33.234C108.276 32.7953 108.192 32.422 108.024 32.114C107.856 31.806 107.628 31.568 107.338 31.4C107.049 31.232 106.722 31.148 106.358 31.148C105.994 31.148 105.668 31.232 105.378 31.4C105.089 31.568 104.856 31.806 104.678 32.114C104.51 32.422 104.426 32.7953 104.426 33.234C104.426 33.6633 104.51 34.0367 104.678 34.354C104.856 34.662 105.089 34.9 105.378 35.068C105.668 35.236 105.994 35.32 106.358 35.32ZM113.665 37L110.949 29.468H113.007L115.261 35.95H114.281L116.633 29.468H118.481L120.763 35.95H119.783L122.107 29.468H124.039L121.309 37H119.195L117.193 31.442H117.837L115.765 37H113.665ZM129.832 29.356C130.43 29.356 130.962 29.4773 131.428 29.72C131.904 29.9533 132.278 30.3173 132.548 30.812C132.819 31.2973 132.954 31.9227 132.954 32.688V37H130.77V33.024C130.77 32.4173 130.635 31.9693 130.364 31.68C130.103 31.3907 129.73 31.246 129.244 31.246C128.899 31.246 128.586 31.3207 128.306 31.47C128.036 31.61 127.821 31.8293 127.662 32.128C127.513 32.4267 127.438 32.8093 127.438 33.276V37H125.254V29.468H127.34V31.554L126.948 30.924C127.219 30.42 127.606 30.0327 128.11 29.762C128.614 29.4913 129.188 29.356 129.832 29.356ZM135.134 37V26.612H137.318V37H135.134ZM143.129 37.112C142.326 37.112 141.612 36.944 140.987 36.608C140.371 36.272 139.881 35.8147 139.517 35.236C139.162 34.648 138.985 33.9807 138.985 33.234C138.985 32.478 139.162 31.8107 139.517 31.232C139.881 30.644 140.371 30.1867 140.987 29.86C141.612 29.524 142.326 29.356 143.129 29.356C143.922 29.356 144.632 29.524 145.257 29.86C145.882 30.1867 146.372 30.6393 146.727 31.218C147.082 31.7967 147.259 32.4687 147.259 33.234C147.259 33.9807 147.082 34.648 146.727 35.236C146.372 35.8147 145.882 36.272 145.257 36.608C144.632 36.944 143.922 37.112 143.129 37.112ZM143.129 35.32C143.493 35.32 143.82 35.236 144.109 35.068C144.398 34.9 144.627 34.662 144.795 34.354C144.963 34.0367 145.047 33.6633 145.047 33.234C145.047 32.7953 144.963 32.422 144.795 32.114C144.627 31.806 144.398 31.568 144.109 31.4C143.82 31.232 143.493 31.148 143.129 31.148C142.765 31.148 142.438 31.232 142.149 31.4C141.86 31.568 141.626 31.806 141.449 32.114C141.281 32.422 141.197 32.7953 141.197 33.234C141.197 33.6633 141.281 34.0367 141.449 34.354C141.626 34.662 141.86 34.9 142.149 35.068C142.438 35.236 142.765 35.32 143.129 35.32ZM153.416 37V35.53L153.276 35.208V32.576C153.276 32.1093 153.131 31.7453 152.842 31.484C152.562 31.2227 152.128 31.092 151.54 31.092C151.139 31.092 150.742 31.1573 150.35 31.288C149.967 31.4093 149.641 31.5773 149.37 31.792L148.586 30.266C148.997 29.9767 149.491 29.7527 150.07 29.594C150.649 29.4353 151.237 29.356 151.834 29.356C152.982 29.356 153.873 29.6267 154.508 30.168C155.143 30.7093 155.46 31.554 155.46 32.702V37H153.416ZM151.12 37.112C150.532 37.112 150.028 37.014 149.608 36.818C149.188 36.6127 148.866 36.3373 148.642 35.992C148.418 35.6467 148.306 35.2593 148.306 34.83C148.306 34.382 148.413 33.99 148.628 33.654C148.852 33.318 149.202 33.0567 149.678 32.87C150.154 32.674 150.775 32.576 151.54 32.576H153.542V33.85H151.778C151.265 33.85 150.91 33.934 150.714 34.102C150.527 34.27 150.434 34.48 150.434 34.732C150.434 35.012 150.541 35.236 150.756 35.404C150.98 35.5627 151.283 35.642 151.666 35.642C152.03 35.642 152.357 35.558 152.646 35.39C152.935 35.2127 153.145 34.956 153.276 34.62L153.612 35.628C153.453 36.1133 153.164 36.482 152.744 36.734C152.324 36.986 151.783 37.112 151.12 37.112ZM160.925 37.112C160.216 37.112 159.577 36.9533 159.007 36.636C158.438 36.3093 157.985 35.8567 157.649 35.278C157.323 34.6993 157.159 34.018 157.159 33.234C157.159 32.4407 157.323 31.7547 157.649 31.176C157.985 30.5973 158.438 30.1493 159.007 29.832C159.577 29.5147 160.216 29.356 160.925 29.356C161.56 29.356 162.115 29.496 162.591 29.776C163.067 30.056 163.436 30.4807 163.697 31.05C163.959 31.6193 164.089 32.3473 164.089 33.234C164.089 34.1113 163.963 34.8393 163.711 35.418C163.459 35.9873 163.095 36.412 162.619 36.692C162.153 36.972 161.588 37.112 160.925 37.112ZM161.303 35.32C161.658 35.32 161.98 35.236 162.269 35.068C162.559 34.9 162.787 34.662 162.955 34.354C163.133 34.0367 163.221 33.6633 163.221 33.234C163.221 32.7953 163.133 32.422 162.955 32.114C162.787 31.806 162.559 31.568 162.269 31.4C161.98 31.232 161.658 31.148 161.303 31.148C160.939 31.148 160.613 31.232 160.323 31.4C160.034 31.568 159.801 31.806 159.623 32.114C159.455 32.422 159.371 32.7953 159.371 33.234C159.371 33.6633 159.455 34.0367 159.623 34.354C159.801 34.662 160.034 34.9 160.323 35.068C160.613 35.236 160.939 35.32 161.303 35.32ZM163.277 37V35.46L163.319 33.22L163.179 30.994V26.612H165.363V37H163.277ZM175.333 37.112C174.531 37.112 173.817 36.944 173.191 36.608C172.575 36.272 172.085 35.8147 171.721 35.236C171.367 34.648 171.189 33.9807 171.189 33.234C171.189 32.478 171.367 31.8107 171.721 31.232C172.085 30.644 172.575 30.1867 173.191 29.86C173.817 29.524 174.531 29.356 175.333 29.356C176.127 29.356 176.836 29.524 177.461 29.86C178.087 30.1867 178.577 30.6393 178.931 31.218C179.286 31.7967 179.463 32.4687 179.463 33.234C179.463 33.9807 179.286 34.648 178.931 35.236C178.577 35.8147 178.087 36.272 177.461 36.608C176.836 36.944 176.127 37.112 175.333 37.112ZM175.333 35.32C175.697 35.32 176.024 35.236 176.313 35.068C176.603 34.9 176.831 34.662 176.999 34.354C177.167 34.0367 177.251 33.6633 177.251 33.234C177.251 32.7953 177.167 32.422 176.999 32.114C176.831 31.806 176.603 31.568 176.313 31.4C176.024 31.232 175.697 31.148 175.333 31.148C174.969 31.148 174.643 31.232 174.353 31.4C174.064 31.568 173.831 31.806 173.653 32.114C173.485 32.422 173.401 32.7953 173.401 33.234C173.401 33.6633 173.485 34.0367 173.653 34.354C173.831 34.662 174.064 34.9 174.353 35.068C174.643 35.236 174.969 35.32 175.333 35.32ZM185.701 29.356C186.299 29.356 186.831 29.4773 187.297 29.72C187.773 29.9533 188.147 30.3173 188.417 30.812C188.688 31.2973 188.823 31.9227 188.823 32.688V37H186.639V33.024C186.639 32.4173 186.504 31.9693 186.233 31.68C185.972 31.3907 185.599 31.246 185.113 31.246C184.768 31.246 184.455 31.3207 184.175 31.47C183.905 31.61 183.69 31.8293 183.531 32.128C183.382 32.4267 183.307 32.8093 183.307 33.276V37H181.123V29.468H183.209V31.554L182.817 30.924C183.088 30.42 183.475 30.0327 183.979 29.762C184.483 29.4913 185.057 29.356 185.701 29.356ZM198.248 37.112C197.361 37.112 196.67 36.888 196.176 36.44C195.681 35.9827 195.434 35.306 195.434 34.41V27.802H197.618V34.382C197.618 34.6993 197.702 34.9467 197.87 35.124C198.038 35.292 198.266 35.376 198.556 35.376C198.901 35.376 199.195 35.2827 199.438 35.096L200.026 36.636C199.802 36.7947 199.531 36.916 199.214 37C198.906 37.0747 198.584 37.112 198.248 37.112ZM194.272 31.316V29.636H199.494V31.316H194.272ZM206.03 29.356C206.627 29.356 207.159 29.4773 207.626 29.72C208.102 29.9533 208.475 30.3173 208.746 30.812C209.016 31.2973 209.152 31.9227 209.152 32.688V37H206.968V33.024C206.968 32.4173 206.832 31.9693 206.562 31.68C206.3 31.3907 205.927 31.246 205.442 31.246C205.096 31.246 204.784 31.3207 204.504 31.47C204.233 31.61 204.018 31.8293 203.86 32.128C203.71 32.4267 203.636 32.8093 203.636 33.276V37H201.452V26.612H203.636V31.554L203.146 30.924C203.416 30.42 203.804 30.0327 204.308 29.762C204.812 29.4913 205.386 29.356 206.03 29.356ZM215.124 37.112C214.265 37.112 213.509 36.944 212.856 36.608C212.212 36.272 211.713 35.8147 211.358 35.236C211.003 34.648 210.826 33.9807 210.826 33.234C210.826 32.478 210.999 31.8107 211.344 31.232C211.699 30.644 212.179 30.1867 212.786 29.86C213.393 29.524 214.079 29.356 214.844 29.356C215.581 29.356 216.244 29.5147 216.832 29.832C217.429 30.14 217.901 30.588 218.246 31.176C218.591 31.7547 218.764 32.45 218.764 33.262C218.764 33.346 218.759 33.444 218.75 33.556C218.741 33.6587 218.731 33.7567 218.722 33.85H212.604V32.576H217.574L216.734 32.954C216.734 32.562 216.655 32.2213 216.496 31.932C216.337 31.6427 216.118 31.4187 215.838 31.26C215.558 31.092 215.231 31.008 214.858 31.008C214.485 31.008 214.153 31.092 213.864 31.26C213.584 31.4187 213.365 31.6473 213.206 31.946C213.047 32.2353 212.968 32.5807 212.968 32.982V33.318C212.968 33.7287 213.057 34.0927 213.234 34.41C213.421 34.718 213.677 34.956 214.004 35.124C214.34 35.2827 214.732 35.362 215.18 35.362C215.581 35.362 215.931 35.3013 216.23 35.18C216.538 35.0587 216.818 34.8767 217.07 34.634L218.232 35.894C217.887 36.286 217.453 36.5893 216.93 36.804C216.407 37.0093 215.805 37.112 215.124 37.112Z" fill="#252B42"/>
<path d="M90.04 66L96.44 52H97.9L104.3 66H102.74L96.86 52.86H97.46L91.58 66H90.04ZM92.56 62.26L93 61.06H101.14L101.58 62.26H92.56ZM111.936 66.1C111.029 66.1 110.209 65.8933 109.476 65.48C108.743 65.0533 108.156 64.4467 107.716 63.66C107.289 62.86 107.076 61.8867 107.076 60.74C107.076 59.5933 107.289 58.6267 107.716 57.84C108.143 57.04 108.723 56.4333 109.456 56.02C110.189 55.6067 111.016 55.4 111.936 55.4C112.936 55.4 113.829 55.6267 114.616 56.08C115.416 56.52 116.043 57.1467 116.496 57.96C116.949 58.76 117.176 59.6867 117.176 60.74C117.176 61.8067 116.949 62.74 116.496 63.54C116.043 64.34 115.416 64.9667 114.616 65.42C113.829 65.8733 112.936 66.1 111.936 66.1ZM106.516 69.88V55.5H107.876V58.66L107.736 60.76L107.936 62.88V69.88H106.516ZM111.836 64.84C112.583 64.84 113.249 64.6733 113.836 64.34C114.423 63.9933 114.889 63.5133 115.236 62.9C115.583 62.2733 115.756 61.5533 115.756 60.74C115.756 59.9267 115.583 59.2133 115.236 58.6C114.889 57.9867 114.423 57.5067 113.836 57.16C113.249 56.8133 112.583 56.64 111.836 56.64C111.089 56.64 110.416 56.8133 109.816 57.16C109.229 57.5067 108.763 57.9867 108.416 58.6C108.083 59.2133 107.916 59.9267 107.916 60.74C107.916 61.5533 108.083 62.2733 108.416 62.9C108.763 63.5133 109.229 63.9933 109.816 64.34C110.416 64.6733 111.089 64.84 111.836 64.84ZM125.691 66.1C124.784 66.1 123.964 65.8933 123.231 65.48C122.497 65.0533 121.911 64.4467 121.471 63.66C121.044 62.86 120.831 61.8867 120.831 60.74C120.831 59.5933 121.044 58.6267 121.471 57.84C121.897 57.04 122.477 56.4333 123.211 56.02C123.944 55.6067 124.771 55.4 125.691 55.4C126.691 55.4 127.584 55.6267 128.371 56.08C129.171 56.52 129.797 57.1467 130.251 57.96C130.704 58.76 130.931 59.6867 130.931 60.74C130.931 61.8067 130.704 62.74 130.251 63.54C129.797 64.34 129.171 64.9667 128.371 65.42C127.584 65.8733 126.691 66.1 125.691 66.1ZM120.271 69.88V55.5H121.631V58.66L121.491 60.76L121.691 62.88V69.88H120.271ZM125.591 64.84C126.337 64.84 127.004 64.6733 127.591 64.34C128.177 63.9933 128.644 63.5133 128.991 62.9C129.337 62.2733 129.511 61.5533 129.511 60.74C129.511 59.9267 129.337 59.2133 128.991 58.6C128.644 57.9867 128.177 57.5067 127.591 57.16C127.004 56.8133 126.337 56.64 125.591 56.64C124.844 56.64 124.171 56.8133 123.571 57.16C122.984 57.5067 122.517 57.9867 122.171 58.6C121.837 59.2133 121.671 59.9267 121.671 60.74C121.671 61.5533 121.837 62.2733 122.171 62.9C122.517 63.5133 122.984 63.9933 123.571 64.34C124.171 64.6733 124.844 64.84 125.591 64.84ZM143.62 66.12C142.58 66.12 141.58 65.9533 140.62 65.62C139.673 65.2733 138.94 64.8333 138.42 64.3L139 63.16C139.493 63.64 140.153 64.0467 140.98 64.38C141.82 64.7 142.7 64.86 143.62 64.86C144.5 64.86 145.213 64.7533 145.76 64.54C146.32 64.3133 146.726 64.0133 146.98 63.64C147.246 63.2667 147.38 62.8533 147.38 62.4C147.38 61.8533 147.22 61.4133 146.9 61.08C146.593 60.7467 146.186 60.4867 145.68 60.3C145.173 60.1 144.613 59.9267 144 59.78C143.386 59.6333 142.773 59.48 142.16 59.32C141.546 59.1467 140.98 58.92 140.46 58.64C139.953 58.36 139.54 57.9933 139.22 57.54C138.913 57.0733 138.76 56.4667 138.76 55.72C138.76 55.0267 138.94 54.3933 139.3 53.82C139.673 53.2333 140.24 52.7667 141 52.42C141.76 52.06 142.733 51.88 143.92 51.88C144.706 51.88 145.486 51.9933 146.26 52.22C147.033 52.4333 147.7 52.7333 148.26 53.12L147.76 54.3C147.16 53.9 146.52 53.6067 145.84 53.42C145.173 53.2333 144.526 53.14 143.9 53.14C143.06 53.14 142.366 53.2533 141.82 53.48C141.273 53.7067 140.866 54.0133 140.6 54.4C140.346 54.7733 140.22 55.2 140.22 55.68C140.22 56.2267 140.373 56.6667 140.68 57C141 57.3333 141.413 57.5933 141.92 57.78C142.44 57.9667 143.006 58.1333 143.62 58.28C144.233 58.4267 144.84 58.5867 145.44 58.76C146.053 58.9333 146.613 59.16 147.12 59.44C147.64 59.7067 148.053 60.0667 148.36 60.52C148.68 60.9733 148.84 61.5667 148.84 62.3C148.84 62.98 148.653 63.6133 148.28 64.2C147.906 64.7733 147.333 65.24 146.56 65.6C145.8 65.9467 144.82 66.12 143.62 66.12ZM155.284 66.1C154.298 66.1 153.538 65.8333 153.004 65.3C152.471 64.7667 152.204 64.0133 152.204 63.04V53.18H153.624V62.96C153.624 63.5733 153.778 64.0467 154.084 64.38C154.404 64.7133 154.858 64.88 155.444 64.88C156.071 64.88 156.591 64.7 157.004 64.34L157.504 65.36C157.224 65.6133 156.884 65.8 156.484 65.92C156.098 66.04 155.698 66.1 155.284 66.1ZM150.324 56.68V55.5H156.824V56.68H150.324ZM164.198 66.1C163.185 66.1 162.272 65.8733 161.458 65.42C160.658 64.9533 160.025 64.32 159.558 63.52C159.092 62.7067 158.858 61.78 158.858 60.74C158.858 59.6867 159.092 58.76 159.558 57.96C160.025 57.16 160.658 56.5333 161.458 56.08C162.258 55.6267 163.172 55.4 164.198 55.4C165.238 55.4 166.158 55.6267 166.958 56.08C167.772 56.5333 168.405 57.16 168.858 57.96C169.325 58.76 169.558 59.6867 169.558 60.74C169.558 61.78 169.325 62.7067 168.858 63.52C168.405 64.32 167.772 64.9533 166.958 65.42C166.145 65.8733 165.225 66.1 164.198 66.1ZM164.198 64.84C164.958 64.84 165.632 64.6733 166.218 64.34C166.805 63.9933 167.265 63.5133 167.598 62.9C167.945 62.2733 168.118 61.5533 168.118 60.74C168.118 59.9133 167.945 59.1933 167.598 58.58C167.265 57.9667 166.805 57.4933 166.218 57.16C165.632 56.8133 164.965 56.64 164.218 56.64C163.472 56.64 162.805 56.8133 162.218 57.16C161.632 57.4933 161.165 57.9667 160.818 58.58C160.472 59.1933 160.298 59.9133 160.298 60.74C160.298 61.5533 160.472 62.2733 160.818 62.9C161.165 63.5133 161.632 63.9933 162.218 64.34C162.805 64.6733 163.465 64.84 164.198 64.84ZM172.657 66V55.5H174.017V58.36L173.877 57.86C174.171 57.06 174.664 56.4533 175.357 56.04C176.051 55.6133 176.911 55.4 177.937 55.4V56.78C177.884 56.78 177.831 56.78 177.777 56.78C177.724 56.7667 177.671 56.76 177.617 56.76C176.511 56.76 175.644 57.1 175.017 57.78C174.391 58.4467 174.077 59.4 174.077 60.64V66H172.657ZM185.091 66.1C183.997 66.1 183.037 65.8733 182.211 65.42C181.384 64.9533 180.737 64.32 180.271 63.52C179.804 62.7067 179.571 61.78 179.571 60.74C179.571 59.7 179.791 58.78 180.231 57.98C180.684 57.18 181.297 56.5533 182.071 56.1C182.857 55.6333 183.737 55.4 184.711 55.4C185.697 55.4 186.571 55.6267 187.331 56.08C188.104 56.52 188.711 57.1467 189.151 57.96C189.591 58.76 189.811 59.6867 189.811 60.74C189.811 60.8067 189.804 60.88 189.791 60.96C189.791 61.0267 189.791 61.1 189.791 61.18H180.651V60.12H189.031L188.471 60.54C188.471 59.78 188.304 59.1067 187.971 58.52C187.651 57.92 187.211 57.4533 186.651 57.12C186.091 56.7867 185.444 56.62 184.711 56.62C183.991 56.62 183.344 56.7867 182.771 57.12C182.197 57.4533 181.751 57.92 181.431 58.52C181.111 59.12 180.951 59.8067 180.951 60.58V60.8C180.951 61.6 181.124 62.3067 181.471 62.92C181.831 63.52 182.324 63.9933 182.951 64.34C183.591 64.6733 184.317 64.84 185.131 64.84C185.771 64.84 186.364 64.7267 186.911 64.5C187.471 64.2733 187.951 63.9267 188.351 63.46L189.151 64.38C188.684 64.94 188.097 65.3667 187.391 65.66C186.697 65.9533 185.931 66.1 185.091 66.1Z" fill="#252B42"/>
<rect x="4.5" y="2.5" width="247" height="89" rx="9.5" stroke="#BDBDBD"/>
</g>
<g filter="url(#filter1_d_2820_3542)">
<rect x="262" y="2" width="250" height="90" rx="10" fill="#252B42"/>
<path d="M308.961 46.1894L315.223 39.9468L294.998 28.6144C293.657 27.8924 292.401 27.791 291.3 28.5806L308.961 46.1894ZM316.291 53.498L322.8 49.8479C324.071 49.1386 324.768 48.1337 324.768 47.019C324.768 45.9065 324.071 44.8995 322.802 44.1901L316.909 40.8905L310.274 47.5025L316.291 53.498V53.498ZM290.212 30.1154C290.076 30.5313 290 30.9957 290 31.5045V62.5484C290 63.3527 290.178 64.0451 290.5 64.5961L307.646 47.5004L290.212 30.1154ZM308.961 48.8093L291.91 65.81C292.236 65.9346 292.588 66 292.958 66C293.619 66 294.307 65.8058 295.008 65.4174L314.607 54.4459L308.961 48.8093V48.8093Z" fill="white"/>
<path d="M351.162 37V27.2H355.614C356.678 27.2 357.616 27.4053 358.428 27.816C359.24 28.2173 359.875 28.782 360.332 29.51C360.789 30.238 361.018 31.1013 361.018 32.1C361.018 33.0893 360.789 33.9527 360.332 34.69C359.875 35.418 359.24 35.9873 358.428 36.398C357.616 36.7993 356.678 37 355.614 37H351.162ZM353.43 35.138H355.502C356.155 35.138 356.72 35.0167 357.196 34.774C357.681 34.522 358.055 34.1673 358.316 33.71C358.587 33.2527 358.722 32.716 358.722 32.1C358.722 31.4747 358.587 30.938 358.316 30.49C358.055 30.0327 357.681 29.6827 357.196 29.44C356.72 29.188 356.155 29.062 355.502 29.062H353.43V35.138ZM366.358 37.112C365.556 37.112 364.842 36.944 364.216 36.608C363.6 36.272 363.11 35.8147 362.746 35.236C362.392 34.648 362.214 33.9807 362.214 33.234C362.214 32.478 362.392 31.8107 362.746 31.232C363.11 30.644 363.6 30.1867 364.216 29.86C364.842 29.524 365.556 29.356 366.358 29.356C367.152 29.356 367.861 29.524 368.486 29.86C369.112 30.1867 369.602 30.6393 369.956 31.218C370.311 31.7967 370.488 32.4687 370.488 33.234C370.488 33.9807 370.311 34.648 369.956 35.236C369.602 35.8147 369.112 36.272 368.486 36.608C367.861 36.944 367.152 37.112 366.358 37.112ZM366.358 35.32C366.722 35.32 367.049 35.236 367.338 35.068C367.628 34.9 367.856 34.662 368.024 34.354C368.192 34.0367 368.276 33.6633 368.276 33.234C368.276 32.7953 368.192 32.422 368.024 32.114C367.856 31.806 367.628 31.568 367.338 31.4C367.049 31.232 366.722 31.148 366.358 31.148C365.994 31.148 365.668 31.232 365.378 31.4C365.089 31.568 364.856 31.806 364.678 32.114C364.51 32.422 364.426 32.7953 364.426 33.234C364.426 33.6633 364.51 34.0367 364.678 34.354C364.856 34.662 365.089 34.9 365.378 35.068C365.668 35.236 365.994 35.32 366.358 35.32ZM373.665 37L370.949 29.468H373.007L375.261 35.95H374.281L376.633 29.468H378.481L380.763 35.95H379.783L382.107 29.468H384.039L381.309 37H379.195L377.193 31.442H377.837L375.765 37H373.665ZM389.832 29.356C390.43 29.356 390.962 29.4773 391.428 29.72C391.904 29.9533 392.278 30.3173 392.548 30.812C392.819 31.2973 392.954 31.9227 392.954 32.688V37H390.77V33.024C390.77 32.4173 390.635 31.9693 390.364 31.68C390.103 31.3907 389.73 31.246 389.244 31.246C388.899 31.246 388.586 31.3207 388.306 31.47C388.036 31.61 387.821 31.8293 387.662 32.128C387.513 32.4267 387.438 32.8093 387.438 33.276V37H385.254V29.468H387.34V31.554L386.948 30.924C387.219 30.42 387.606 30.0327 388.11 29.762C388.614 29.4913 389.188 29.356 389.832 29.356ZM395.134 37V26.612H397.318V37H395.134ZM403.129 37.112C402.326 37.112 401.612 36.944 400.987 36.608C400.371 36.272 399.881 35.8147 399.517 35.236C399.162 34.648 398.985 33.9807 398.985 33.234C398.985 32.478 399.162 31.8107 399.517 31.232C399.881 30.644 400.371 30.1867 400.987 29.86C401.612 29.524 402.326 29.356 403.129 29.356C403.922 29.356 404.632 29.524 405.257 29.86C405.882 30.1867 406.372 30.6393 406.727 31.218C407.082 31.7967 407.259 32.4687 407.259 33.234C407.259 33.9807 407.082 34.648 406.727 35.236C406.372 35.8147 405.882 36.272 405.257 36.608C404.632 36.944 403.922 37.112 403.129 37.112ZM403.129 35.32C403.493 35.32 403.82 35.236 404.109 35.068C404.398 34.9 404.627 34.662 404.795 34.354C404.963 34.0367 405.047 33.6633 405.047 33.234C405.047 32.7953 404.963 32.422 404.795 32.114C404.627 31.806 404.398 31.568 404.109 31.4C403.82 31.232 403.493 31.148 403.129 31.148C402.765 31.148 402.438 31.232 402.149 31.4C401.86 31.568 401.626 31.806 401.449 32.114C401.281 32.422 401.197 32.7953 401.197 33.234C401.197 33.6633 401.281 34.0367 401.449 34.354C401.626 34.662 401.86 34.9 402.149 35.068C402.438 35.236 402.765 35.32 403.129 35.32ZM413.416 37V35.53L413.276 35.208V32.576C413.276 32.1093 413.131 31.7453 412.842 31.484C412.562 31.2227 412.128 31.092 411.54 31.092C411.139 31.092 410.742 31.1573 410.35 31.288C409.967 31.4093 409.641 31.5773 409.37 31.792L408.586 30.266C408.997 29.9767 409.491 29.7527 410.07 29.594C410.649 29.4353 411.237 29.356 411.834 29.356C412.982 29.356 413.873 29.6267 414.508 30.168C415.143 30.7093 415.46 31.554 415.46 32.702V37H413.416ZM411.12 37.112C410.532 37.112 410.028 37.014 409.608 36.818C409.188 36.6127 408.866 36.3373 408.642 35.992C408.418 35.6467 408.306 35.2593 408.306 34.83C408.306 34.382 408.413 33.99 408.628 33.654C408.852 33.318 409.202 33.0567 409.678 32.87C410.154 32.674 410.775 32.576 411.54 32.576H413.542V33.85H411.778C411.265 33.85 410.91 33.934 410.714 34.102C410.527 34.27 410.434 34.48 410.434 34.732C410.434 35.012 410.541 35.236 410.756 35.404C410.98 35.5627 411.283 35.642 411.666 35.642C412.03 35.642 412.357 35.558 412.646 35.39C412.935 35.2127 413.145 34.956 413.276 34.62L413.612 35.628C413.453 36.1133 413.164 36.482 412.744 36.734C412.324 36.986 411.783 37.112 411.12 37.112ZM420.925 37.112C420.216 37.112 419.577 36.9533 419.007 36.636C418.438 36.3093 417.985 35.8567 417.649 35.278C417.323 34.6993 417.159 34.018 417.159 33.234C417.159 32.4407 417.323 31.7547 417.649 31.176C417.985 30.5973 418.438 30.1493 419.007 29.832C419.577 29.5147 420.216 29.356 420.925 29.356C421.56 29.356 422.115 29.496 422.591 29.776C423.067 30.056 423.436 30.4807 423.697 31.05C423.959 31.6193 424.089 32.3473 424.089 33.234C424.089 34.1113 423.963 34.8393 423.711 35.418C423.459 35.9873 423.095 36.412 422.619 36.692C422.153 36.972 421.588 37.112 420.925 37.112ZM421.303 35.32C421.658 35.32 421.98 35.236 422.269 35.068C422.559 34.9 422.787 34.662 422.955 34.354C423.133 34.0367 423.221 33.6633 423.221 33.234C423.221 32.7953 423.133 32.422 422.955 32.114C422.787 31.806 422.559 31.568 422.269 31.4C421.98 31.232 421.658 31.148 421.303 31.148C420.939 31.148 420.613 31.232 420.323 31.4C420.034 31.568 419.801 31.806 419.623 32.114C419.455 32.422 419.371 32.7953 419.371 33.234C419.371 33.6633 419.455 34.0367 419.623 34.354C419.801 34.662 420.034 34.9 420.323 35.068C420.613 35.236 420.939 35.32 421.303 35.32ZM423.277 37V35.46L423.319 33.22L423.179 30.994V26.612H425.363V37H423.277ZM435.333 37.112C434.531 37.112 433.817 36.944 433.191 36.608C432.575 36.272 432.085 35.8147 431.721 35.236C431.367 34.648 431.189 33.9807 431.189 33.234C431.189 32.478 431.367 31.8107 431.721 31.232C432.085 30.644 432.575 30.1867 433.191 29.86C433.817 29.524 434.531 29.356 435.333 29.356C436.127 29.356 436.836 29.524 437.461 29.86C438.087 30.1867 438.577 30.6393 438.931 31.218C439.286 31.7967 439.463 32.4687 439.463 33.234C439.463 33.9807 439.286 34.648 438.931 35.236C438.577 35.8147 438.087 36.272 437.461 36.608C436.836 36.944 436.127 37.112 435.333 37.112ZM435.333 35.32C435.697 35.32 436.024 35.236 436.313 35.068C436.603 34.9 436.831 34.662 436.999 34.354C437.167 34.0367 437.251 33.6633 437.251 33.234C437.251 32.7953 437.167 32.422 436.999 32.114C436.831 31.806 436.603 31.568 436.313 31.4C436.024 31.232 435.697 31.148 435.333 31.148C434.969 31.148 434.643 31.232 434.353 31.4C434.064 31.568 433.831 31.806 433.653 32.114C433.485 32.422 433.401 32.7953 433.401 33.234C433.401 33.6633 433.485 34.0367 433.653 34.354C433.831 34.662 434.064 34.9 434.353 35.068C434.643 35.236 434.969 35.32 435.333 35.32ZM445.701 29.356C446.299 29.356 446.831 29.4773 447.297 29.72C447.773 29.9533 448.147 30.3173 448.417 30.812C448.688 31.2973 448.823 31.9227 448.823 32.688V37H446.639V33.024C446.639 32.4173 446.504 31.9693 446.233 31.68C445.972 31.3907 445.599 31.246 445.113 31.246C444.768 31.246 444.455 31.3207 444.175 31.47C443.905 31.61 443.69 31.8293 443.531 32.128C443.382 32.4267 443.307 32.8093 443.307 33.276V37H441.123V29.468H443.209V31.554L442.817 30.924C443.088 30.42 443.475 30.0327 443.979 29.762C444.483 29.4913 445.057 29.356 445.701 29.356ZM458.248 37.112C457.361 37.112 456.67 36.888 456.176 36.44C455.681 35.9827 455.434 35.306 455.434 34.41V27.802H457.618V34.382C457.618 34.6993 457.702 34.9467 457.87 35.124C458.038 35.292 458.266 35.376 458.556 35.376C458.901 35.376 459.195 35.2827 459.438 35.096L460.026 36.636C459.802 36.7947 459.531 36.916 459.214 37C458.906 37.0747 458.584 37.112 458.248 37.112ZM454.272 31.316V29.636H459.494V31.316H454.272ZM466.03 29.356C466.627 29.356 467.159 29.4773 467.626 29.72C468.102 29.9533 468.475 30.3173 468.746 30.812C469.016 31.2973 469.152 31.9227 469.152 32.688V37H466.968V33.024C466.968 32.4173 466.832 31.9693 466.562 31.68C466.3 31.3907 465.927 31.246 465.442 31.246C465.096 31.246 464.784 31.3207 464.504 31.47C464.233 31.61 464.018 31.8293 463.86 32.128C463.71 32.4267 463.636 32.8093 463.636 33.276V37H461.452V26.612H463.636V31.554L463.146 30.924C463.416 30.42 463.804 30.0327 464.308 29.762C464.812 29.4913 465.386 29.356 466.03 29.356ZM475.124 37.112C474.265 37.112 473.509 36.944 472.856 36.608C472.212 36.272 471.713 35.8147 471.358 35.236C471.003 34.648 470.826 33.9807 470.826 33.234C470.826 32.478 470.999 31.8107 471.344 31.232C471.699 30.644 472.179 30.1867 472.786 29.86C473.393 29.524 474.079 29.356 474.844 29.356C475.581 29.356 476.244 29.5147 476.832 29.832C477.429 30.14 477.901 30.588 478.246 31.176C478.591 31.7547 478.764 32.45 478.764 33.262C478.764 33.346 478.759 33.444 478.75 33.556C478.741 33.6587 478.731 33.7567 478.722 33.85H472.604V32.576H477.574L476.734 32.954C476.734 32.562 476.655 32.2213 476.496 31.932C476.337 31.6427 476.118 31.4187 475.838 31.26C475.558 31.092 475.231 31.008 474.858 31.008C474.485 31.008 474.153 31.092 473.864 31.26C473.584 31.4187 473.365 31.6473 473.206 31.946C473.047 32.2353 472.968 32.5807 472.968 32.982V33.318C472.968 33.7287 473.057 34.0927 473.234 34.41C473.421 34.718 473.677 34.956 474.004 35.124C474.34 35.2827 474.732 35.362 475.18 35.362C475.581 35.362 475.931 35.3013 476.23 35.18C476.538 35.0587 476.818 34.8767 477.07 34.634L478.232 35.894C477.887 36.286 477.453 36.5893 476.93 36.804C476.407 37.0093 475.805 37.112 475.124 37.112Z" fill="white"/>
<path d="M358.42 66.12C357.353 66.12 356.367 65.9467 355.46 65.6C354.567 65.24 353.787 64.74 353.12 64.1C352.467 63.46 351.953 62.7067 351.58 61.84C351.22 60.9733 351.04 60.0267 351.04 59C351.04 57.9733 351.22 57.0267 351.58 56.16C351.953 55.2933 352.473 54.54 353.14 53.9C353.807 53.26 354.587 52.7667 355.48 52.42C356.387 52.06 357.373 51.88 358.44 51.88C359.507 51.88 360.48 52.0467 361.36 52.38C362.253 52.7133 363.013 53.22 363.64 53.9L362.72 54.84C362.133 54.2533 361.487 53.8333 360.78 53.58C360.073 53.3267 359.313 53.2 358.5 53.2C357.633 53.2 356.833 53.3467 356.1 53.64C355.38 53.92 354.747 54.3267 354.2 54.86C353.667 55.38 353.247 55.9933 352.94 56.7C352.647 57.3933 352.5 58.16 352.5 59C352.5 59.8267 352.647 60.5933 352.94 61.3C353.247 62.0067 353.667 62.6267 354.2 63.16C354.747 63.68 355.38 64.0867 356.1 64.38C356.833 64.66 357.627 64.8 358.48 64.8C359.28 64.8 360.033 64.68 360.74 64.44C361.46 64.2 362.12 63.7933 362.72 63.22L363.56 64.34C362.893 64.9267 362.113 65.3733 361.22 65.68C360.327 65.9733 359.393 66.12 358.42 66.12ZM362.14 64.16V59H363.56V64.34L362.14 64.16ZM371.929 66.1C370.915 66.1 370.002 65.8733 369.189 65.42C368.389 64.9533 367.755 64.32 367.289 63.52C366.822 62.7067 366.589 61.78 366.589 60.74C366.589 59.6867 366.822 58.76 367.289 57.96C367.755 57.16 368.389 56.5333 369.189 56.08C369.989 55.6267 370.902 55.4 371.929 55.4C372.969 55.4 373.889 55.6267 374.689 56.08C375.502 56.5333 376.135 57.16 376.589 57.96C377.055 58.76 377.289 59.6867 377.289 60.74C377.289 61.78 377.055 62.7067 376.589 63.52C376.135 64.32 375.502 64.9533 374.689 65.42C373.875 65.8733 372.955 66.1 371.929 66.1ZM371.929 64.84C372.689 64.84 373.362 64.6733 373.949 64.34C374.535 63.9933 374.995 63.5133 375.329 62.9C375.675 62.2733 375.849 61.5533 375.849 60.74C375.849 59.9133 375.675 59.1933 375.329 58.58C374.995 57.9667 374.535 57.4933 373.949 57.16C373.362 56.8133 372.695 56.64 371.949 56.64C371.202 56.64 370.535 56.8133 369.949 57.16C369.362 57.4933 368.895 57.9667 368.549 58.58C368.202 59.1933 368.029 59.9133 368.029 60.74C368.029 61.5533 368.202 62.2733 368.549 62.9C368.895 63.5133 369.362 63.9933 369.949 64.34C370.535 64.6733 371.195 64.84 371.929 64.84ZM384.668 66.1C383.654 66.1 382.741 65.8733 381.928 65.42C381.128 64.9533 380.494 64.32 380.028 63.52C379.561 62.7067 379.328 61.78 379.328 60.74C379.328 59.6867 379.561 58.76 380.028 57.96C380.494 57.16 381.128 56.5333 381.928 56.08C382.728 55.6267 383.641 55.4 384.668 55.4C385.708 55.4 386.628 55.6267 387.428 56.08C388.241 56.5333 388.874 57.16 389.328 57.96C389.794 58.76 390.028 59.6867 390.028 60.74C390.028 61.78 389.794 62.7067 389.328 63.52C388.874 64.32 388.241 64.9533 387.428 65.42C386.614 65.8733 385.694 66.1 384.668 66.1ZM384.668 64.84C385.428 64.84 386.101 64.6733 386.688 64.34C387.274 63.9933 387.734 63.5133 388.068 62.9C388.414 62.2733 388.588 61.5533 388.588 60.74C388.588 59.9133 388.414 59.1933 388.068 58.58C387.734 57.9667 387.274 57.4933 386.688 57.16C386.101 56.8133 385.434 56.64 384.688 56.64C383.941 56.64 383.274 56.8133 382.688 57.16C382.101 57.4933 381.634 57.9667 381.288 58.58C380.941 59.1933 380.768 59.9133 380.768 60.74C380.768 61.5533 380.941 62.2733 381.288 62.9C381.634 63.5133 382.101 63.9933 382.688 64.34C383.274 64.6733 383.934 64.84 384.668 64.84ZM397.607 69.98C396.647 69.98 395.727 69.84 394.847 69.56C393.967 69.28 393.254 68.88 392.707 68.36L393.427 67.28C393.92 67.72 394.527 68.0667 395.247 68.32C395.98 68.5867 396.754 68.72 397.567 68.72C398.9 68.72 399.88 68.4067 400.507 67.78C401.134 67.1667 401.447 66.2067 401.447 64.9V62.28L401.647 60.48L401.507 58.68V55.5H402.867V64.72C402.867 66.5333 402.42 67.86 401.527 68.7C400.647 69.5533 399.34 69.98 397.607 69.98ZM397.347 65.6C396.347 65.6 395.447 65.3867 394.647 64.96C393.847 64.52 393.214 63.9133 392.747 63.14C392.294 62.3667 392.067 61.48 392.067 60.48C392.067 59.48 392.294 58.6 392.747 57.84C393.214 57.0667 393.847 56.4667 394.647 56.04C395.447 55.6133 396.347 55.4 397.347 55.4C398.28 55.4 399.12 55.5933 399.867 55.98C400.614 56.3667 401.207 56.94 401.647 57.7C402.087 58.46 402.307 59.3867 402.307 60.48C402.307 61.5733 402.087 62.5 401.647 63.26C401.207 64.02 400.614 64.6 399.867 65C399.12 65.4 398.28 65.6 397.347 65.6ZM397.487 64.34C398.26 64.34 398.947 64.18 399.547 63.86C400.147 63.5267 400.62 63.0733 400.967 62.5C401.314 61.9133 401.487 61.24 401.487 60.48C401.487 59.72 401.314 59.0533 400.967 58.48C400.62 57.9067 400.147 57.46 399.547 57.14C398.947 56.8067 398.26 56.64 397.487 56.64C396.727 56.64 396.04 56.8067 395.427 57.14C394.827 57.46 394.354 57.9067 394.007 58.48C393.674 59.0533 393.507 59.72 393.507 60.48C393.507 61.24 393.674 61.9133 394.007 62.5C394.354 63.0733 394.827 63.5267 395.427 63.86C396.04 64.18 396.727 64.34 397.487 64.34ZM407.018 66V51.16H408.438V66H407.018ZM417.049 66.1C415.956 66.1 414.996 65.8733 414.169 65.42C413.343 64.9533 412.696 64.32 412.229 63.52C411.763 62.7067 411.529 61.78 411.529 60.74C411.529 59.7 411.749 58.78 412.189 57.98C412.643 57.18 413.256 56.5533 414.029 56.1C414.816 55.6333 415.696 55.4 416.669 55.4C417.656 55.4 418.529 55.6267 419.289 56.08C420.063 56.52 420.669 57.1467 421.109 57.96C421.549 58.76 421.769 59.6867 421.769 60.74C421.769 60.8067 421.763 60.88 421.749 60.96C421.749 61.0267 421.749 61.1 421.749 61.18H412.609V60.12H420.989L420.429 60.54C420.429 59.78 420.263 59.1067 419.929 58.52C419.609 57.92 419.169 57.4533 418.609 57.12C418.049 56.7867 417.403 56.62 416.669 56.62C415.949 56.62 415.303 56.7867 414.729 57.12C414.156 57.4533 413.709 57.92 413.389 58.52C413.069 59.12 412.909 59.8067 412.909 60.58V60.8C412.909 61.6 413.083 62.3067 413.429 62.92C413.789 63.52 414.283 63.9933 414.909 64.34C415.549 64.6733 416.276 64.84 417.089 64.84C417.729 64.84 418.323 64.7267 418.869 64.5C419.429 64.2733 419.909 63.9267 420.309 63.46L421.109 64.38C420.643 64.94 420.056 65.3667 419.349 65.66C418.656 65.9533 417.889 66.1 417.049 66.1ZM430.594 66V52H435.834C437.021 52 438.041 52.1933 438.894 52.58C439.747 52.9533 440.401 53.5 440.854 54.22C441.321 54.9267 441.554 55.7867 441.554 56.8C441.554 57.7867 441.321 58.64 440.854 59.36C440.401 60.0667 439.747 60.6133 438.894 61C438.041 61.3867 437.021 61.58 435.834 61.58H431.414L432.074 60.88V66H430.594ZM432.074 61L431.414 60.28H435.794C437.194 60.28 438.254 59.98 438.974 59.38C439.707 58.7667 440.074 57.9067 440.074 56.8C440.074 55.68 439.707 54.8133 438.974 54.2C438.254 53.5867 437.194 53.28 435.794 53.28H431.414L432.074 52.58V61ZM444.85 66V51.16H446.27V66H444.85ZM457.001 66V63.68L456.941 63.3V59.42C456.941 58.5267 456.687 57.84 456.181 57.36C455.687 56.88 454.947 56.64 453.961 56.64C453.281 56.64 452.634 56.7533 452.021 56.98C451.407 57.2067 450.887 57.5067 450.461 57.88L449.821 56.82C450.354 56.3667 450.994 56.02 451.741 55.78C452.487 55.5267 453.274 55.4 454.101 55.4C455.461 55.4 456.507 55.74 457.241 56.42C457.987 57.0867 458.361 58.1067 458.361 59.48V66H457.001ZM453.381 66.1C452.594 66.1 451.907 65.9733 451.321 65.72C450.747 65.4533 450.307 65.0933 450.001 64.64C449.694 64.1733 449.541 63.64 449.541 63.04C449.541 62.4933 449.667 62 449.921 61.56C450.187 61.1067 450.614 60.7467 451.201 60.48C451.801 60.2 452.601 60.06 453.601 60.06H457.221V61.12H453.641C452.627 61.12 451.921 61.3 451.521 61.66C451.134 62.02 450.941 62.4667 450.941 63C450.941 63.6 451.174 64.08 451.641 64.44C452.107 64.8 452.761 64.98 453.601 64.98C454.401 64.98 455.087 64.8 455.661 64.44C456.247 64.0667 456.674 63.5333 456.941 62.84L457.261 63.82C456.994 64.5133 456.527 65.0667 455.861 65.48C455.207 65.8933 454.381 66.1 453.381 66.1ZM462.302 69.98C461.809 69.98 461.336 69.9 460.882 69.74C460.442 69.58 460.062 69.34 459.742 69.02L460.402 67.96C460.669 68.2133 460.956 68.4067 461.262 68.54C461.582 68.6867 461.936 68.76 462.322 68.76C462.789 68.76 463.189 68.6267 463.522 68.36C463.869 68.1067 464.196 67.6533 464.502 67L465.182 65.46L465.342 65.24L469.662 55.5H471.062L465.802 67.26C465.509 67.94 465.182 68.48 464.822 68.88C464.476 69.28 464.096 69.56 463.682 69.72C463.269 69.8933 462.809 69.98 462.302 69.98ZM465.102 66.3L460.262 55.5H461.742L466.022 65.14L465.102 66.3Z" fill="white"/>
<rect x="262.5" y="2.5" width="249" height="89" rx="9.5" stroke="#BDBDBD"/>
</g>
<defs>
<filter id="filter0_d_2820_3542" x="0" y="0" width="256" height="98" filterUnits="userSpaceOnUse" color-interpolation-filters="sRGB">
<feFlood flood-opacity="0" result="BackgroundImageFix"/>
<feColorMatrix in="SourceAlpha" type="matrix" values="0 0 0 0 0 0 0 0 0 0 0 0 0 0 0 0 0 0 127 0" result="hardAlpha"/>
<feOffset dy="2"/>
<feGaussianBlur stdDeviation="2"/>
<feColorMatrix type="matrix" values="0 0 0 0 0 0 0 0 0 0 0 0 0 0 0 0 0 0 0.1 0"/>
<feBlend mode="normal" in2="BackgroundImageFix" result="effect1_dropShadow_2820_3542"/>
<feBlend mode="normal" in="SourceGraphic" in2="effect1_dropShadow_2820_3542" result="shape"/>
</filter>
<filter id="filter1_d_2820_3542" x="258" y="0" width="258" height="98" filterUnits="userSpaceOnUse" color-interpolation-filters="sRGB">
<feFlood flood-opacity="0" result="BackgroundImageFix"/>
<feColorMatrix in="SourceAlpha" type="matrix" values="0 0 0 0 0 0 0 0 0 0 0 0 0 0 0 0 0 0 127 0" result="hardAlpha"/>
<feOffset dy="2"/>
<feGaussianBlur stdDeviation="2"/>
<feColorMatrix type="matrix" values="0 0 0 0 0 0 0 0 0 0 0 0 0 0 0 0 0 0 0.1 0"/>
<feBlend mode="normal" in2="BackgroundImageFix" result="effect1_dropShadow_2820_3542"/>
<feBlend mode="normal" in="SourceGraphic" in2="effect1_dropShadow_2820_3542" result="shape"/>
</filter>
</defs>
</svg>
